<svg width="25" height="24" viewBox="0 0 25 24" fill="none" xmlns="http://www.w3.org/2000/svg">
<path opacity="0.5" d="M11.642 20C9.415 20 8.301 20 7.372 19.499C6.442 18.997 5.852 18.079 4.671 16.24L3.99 15.18C2.997 13.634 2.5 12.86 2.5 12C2.5 11.14 2.997 10.366 3.99 8.82L4.67 7.76C5.851 5.922 6.441 5.003 7.371 4.501C8.301 4 9.415 4 11.642 4H14.279C18.154 4 20.092 4 21.296 5.172C22.5 6.343 22.5 8.229 22.5 12C22.5 15.771 22.5 17.657 21.296 18.828C20.092 20 18.154 20 14.28 20H11.642Z" stroke="#2D2D2D" stroke-width="1.5"/>
<path d="M16 9.5L11 14.5M11 9.5L16 14.5" stroke="#2D2D2D" stroke-width="1.5" stroke-linecap="round"/>
</svg>
