<svg width="25" height="24" viewBox="0 0 25 24" fill="none" xmlns="http://www.w3.org/2000/svg">
<path d="M4.179 13L3.652 13.532C3.79246 13.6712 3.98223 13.7494 4.18 13.7494C4.37777 13.7494 4.56754 13.6712 4.708 13.532L4.179 13ZM6.388 11.866C6.52936 11.7257 6.6092 11.535 6.60995 11.3358C6.6107 11.1367 6.5323 10.9454 6.392 10.804C6.32253 10.734 6.23996 10.6784 6.14899 10.6403C6.05802 10.6022 5.96044 10.5824 5.86183 10.5821C5.66266 10.5813 5.47136 10.6597 5.33 10.8L6.388 11.866ZM3.028 10.8C2.88599 10.6639 2.69618 10.589 2.49947 10.5915C2.30277 10.594 2.11491 10.6736 1.9764 10.8133C1.83789 10.953 1.7598 11.1416 1.75898 11.3383C1.75816 11.535 1.83466 11.7242 1.972 11.865L3.028 10.8ZM19.116 7.39201C19.1663 7.47858 19.2334 7.55421 19.3133 7.61444C19.3933 7.67466 19.4845 7.71828 19.5816 7.7427C19.6787 7.76712 19.7797 7.77186 19.8786 7.75664C19.9775 7.74142 20.0724 7.70655 20.1577 7.65407C20.2429 7.6016 20.3168 7.53259 20.375 7.45111C20.4332 7.36963 20.4744 7.27734 20.4963 7.17966C20.5183 7.08198 20.5204 6.98091 20.5027 6.88238C20.4849 6.78386 20.4476 6.68989 20.393 6.60601L19.116 7.39201ZM12.579 2.25001C7.532 2.25001 3.429 6.31101 3.429 11.333H4.929C4.929 7.15101 8.349 3.75001 12.579 3.75001V2.25001ZM3.429 11.333V13H4.929V11.333H3.429ZM4.709 13.533L6.388 11.866L5.33 10.8L3.65 12.467L4.709 13.533ZM4.709 12.468L3.028 10.8L1.971 11.865L3.651 13.531L4.709 12.468ZM20.393 6.60801C19.5721 5.27411 18.4227 4.17305 17.0549 3.41006C15.687 2.64707 14.1453 2.24767 12.579 2.25001V3.75001C13.8892 3.74729 15.1793 4.0808 16.3238 4.71863C17.4683 5.35646 18.4301 6.27728 19.117 7.39301L20.393 6.60801Z" fill="black"/>
<path opacity="0.5" d="M20.813 11L21.341 10.467C21.2006 10.3281 21.011 10.2502 20.8135 10.2502C20.616 10.2502 20.4264 10.3281 20.286 10.467L20.813 11ZM18.6 12.133C18.5299 12.2023 18.4742 12.2847 18.436 12.3755C18.3978 12.4663 18.3778 12.5637 18.3773 12.6623C18.3761 12.8612 18.4541 13.0525 18.594 13.194C18.7339 13.3355 18.9243 13.4156 19.1233 13.4167C19.3222 13.4179 19.5135 13.3399 19.655 13.2L18.6 12.133ZM21.973 13.2C22.0427 13.2711 22.1258 13.3276 22.2175 13.3662C22.3092 13.4049 22.4077 13.4249 22.5072 13.4251C22.6067 13.4253 22.7053 13.4057 22.7971 13.3674C22.889 13.3291 22.9723 13.2729 23.0422 13.2021C23.1122 13.1313 23.1673 13.0473 23.2045 12.955C23.2416 12.8627 23.26 12.7639 23.2586 12.6644C23.2572 12.5649 23.236 12.4666 23.1962 12.3754C23.1564 12.2842 23.0989 12.2018 23.027 12.133L21.973 13.2ZM5.818 16.606C5.7135 16.4367 5.54602 16.3158 5.35239 16.2699C5.15876 16.2241 4.95484 16.257 4.7855 16.3615C4.61616 16.466 4.49526 16.6335 4.44941 16.8271C4.40356 17.0208 4.4365 17.2247 4.541 17.394L5.818 16.606ZM12.383 21.75C17.445 21.75 21.563 17.692 21.563 12.667H20.063C20.063 16.847 16.633 20.25 12.383 20.25V21.75ZM21.563 12.667V11H20.063V12.667H21.563ZM20.286 10.467L18.6 12.133L19.655 13.2L21.341 11.533L20.286 10.467ZM20.286 11.533L21.973 13.2L23.027 12.133L21.341 10.467L20.286 11.533ZM4.541 17.394C5.36742 18.7293 6.522 19.8298 7.89473 20.5925C9.26746 21.3552 10.8126 21.7537 12.383 21.75V20.25C11.0686 20.2537 9.77522 19.9207 8.62602 19.2828C7.47681 18.6449 6.5101 17.7234 5.818 16.606L4.541 17.394Z" fill="black"/>
</svg>
